<svg width="193" height="98" xmlns="http://www.w3.org/2000/svg" xmlns:xlink="http://www.w3.org/1999/xlink" overflow="hidden"><defs><clipPath id="clip0"><rect x="692" y="119" width="193" height="98"/></clipPath><clipPath id="clip1"><rect x="788" y="120" width="96" height="96"/></clipPath><clipPath id="clip2"><rect x="788" y="120" width="96" height="96"/></clipPath><clipPath id="clip3"><rect x="788" y="120" width="96" height="96"/></clipPath><clipPath id="clip4"><rect x="692" y="120" width="96" height="96"/></clipPath><clipPath id="clip5"><rect x="692" y="120" width="96" height="96"/></clipPath><clipPath id="clip6"><rect x="692" y="120" width="96" height="96"/></clipPath></defs><g clip-path="url(#clip0)" transform="translate(-692 -119)"><g clip-path="url(#clip1)"><g clip-path="url(#clip2)"><g clip-path="url(#clip3)"><path d="M817 196 817 195 821 195C828.1 195 828.6 203 842 203L860 203C863.31 202.99 865.99 200.31 866 197 866.023 195.514 865.453 194.081 864.416 193.017 864.412 193.013 864.412 193.007 864.416 193.003 864.418 193.001 864.42 193 864.423 193L865 193C868.31 192.99 870.99 190.31 871 187 871.015 185.435 870.407 183.929 869.311 182.812 869.307 182.809 869.306 182.802 869.309 182.798 869.31 182.797 869.31 182.797 869.311 182.796 872.531 182.089 874.568 178.905 873.86 175.685 873.601 174.507 872.991 173.435 872.111 172.61 872.107 172.607 872.106 172.602 872.109 172.598 872.109 172.596 872.11 172.596 872.111 172.595 874.468 171.75 876.029 169.504 876 167 875.99 163.69 873.31 161.01 870 161L851 161C849.393 160.972 848.082 159.705 848 158.1 848.1 156.3 850.99 152.712 851 139.068 851.016 135.951 848.659 133.333 845.557 133.025 845.37 133.008 845.184 133 845 133 841.686 133 839 135.686 839 139 839 151.36 827.3 159.356 822.761 162.02 821.665 162.663 820.417 163.001 819.146 163L817 163 817 162C816.993 159.794 815.206 158.007 813 158L796 158 796 200 813 200C815.206 199.993 816.993 198.206 817 196ZM819.146 165C820.776 165 822.376 164.566 823.781 163.741 828.958 160.7 841 152.2 841 139 841 136.791 842.791 135 845 135 847.209 134.996 849.003 136.784 849.007 138.993 849.008 139.076 849.005 139.159 849 139.242 848.975 149 847.447 153.305 846.626 155.615 846.305 156.372 846.094 157.172 846 157.989 845.996 158.06 845.996 158.132 846 158.203 846.149 160.867 848.332 162.962 851 163L869.994 163C872.208 163.014 873.996 164.81 874 167.024 874.02 168.678 872.987 170.161 871.429 170.716 870.389 171.087 869.846 172.231 870.217 173.271 870.324 173.573 870.503 173.845 870.737 174.063 871.625 174.89 872.089 176.074 872 177.284 871.807 179.045 870.513 180.487 868.783 180.869 867.717 181.158 867.087 182.256 867.375 183.322 867.466 183.655 867.641 183.96 867.883 184.205 868.61 184.95 869.012 185.953 869 186.994 868.989 189.199 867.205 190.985 865 191L864.4 191C863.295 191.001 862.401 191.897 862.401 193.001 862.402 193.524 862.607 194.026 862.973 194.4 863.648 195.093 864.018 196.027 864 196.994 863.989 199.199 862.205 200.985 860 201L842 201C834.933 201 831.992 198.7 829.147 196.486 826.95 194.772 824.679 193 821 193L817 193 817 165ZM798 160 813 160C814.101 160.009 814.991 160.899 815 162L815 195.994C814.995 197.098 814.104 197.992 813 198L798 198Z"/></g></g></g><g clip-path="url(#clip4)"><g clip-path="url(#clip5)"><g clip-path="url(#clip6)"><path d="M762 162C762 165.314 759.314 168 756 168 752.686 168 750 165.314 750 162 750 158.686 752.686 156 756 156 759.314 156 762 158.686 762 162Z"/><path d="M760.29 177C759.44 176.47 757.94 176.12 757.16 176.94 760.36 176.02 760.97 181.39 758.01 181.42 756.01 181.42 753.64 179.54 752.01 178.61 749.57 177.2 747.3 175.61 744.34 175.76 742.723 175.874 741.193 176.533 740 177.63 738.81 176.517 737.275 175.843 735.65 175.72 732.65 175.57 730.42 177.16 727.98 178.57 726.36 179.5 723.98 181.4 721.98 181.38 718.98 181.38 719.63 175.98 722.83 176.9 722.05 176.08 720.55 176.43 719.7 176.96 718.474 177.829 717.822 179.298 718 180.79 718.3 184.15 721.28 185.79 724.3 186.35 727.707 186.842 731.183 186.456 734.4 185.23 736.12 184.63 738.64 183.67 739.98 182.06 741.32 183.67 743.84 184.63 745.56 185.23 748.777 186.456 752.253 186.842 755.66 186.35 758.66 185.8 761.66 184.15 761.96 180.79 762.129 179.318 761.491 177.869 760.29 177Z"/><path d="M732 162C732 160.895 731.105 160 730 160L718 160C716.895 160 716 160.895 716 162 716 163.105 716.895 164 718 164L730 164C731.105 164 732 163.105 732 162Z"/><path d="M740 134C758.778 134 774 149.222 774 168 774 186.778 758.778 202 740 202 721.222 202 706 186.778 706 168 706 149.222 721.222 134 740 134M740 130C719.013 130 702 147.013 702 168 702 188.987 719.013 206 740 206 760.987 206 778 188.987 778 168 778 147.013 760.987 130 740 130Z"/></g></g></g></g></svg>